<svg xmlns="http://www.w3.org/2000/svg" xmlns:xlink="http://www.w3.org/1999/xlink" width="500" zoomAndPan="magnify" viewBox="0 0 375 374.999991" height="500" preserveAspectRatio="xMidYMid meet" version="1.0"><defs><g/><clipPath id="id1"><path d="M 53 151 L 321 151 L 321 224 L 53 224 Z M 53 151 " clip-rule="nonzero"/></clipPath><clipPath id="id2"><path d="M 53.550781 178.246094 L 315.425781 151.390625 L 320.015625 196.15625 L 58.140625 223.011719 Z M 53.550781 178.246094 " clip-rule="nonzero"/></clipPath><clipPath id="id3"><path d="M 42.417969 69.679688 L 304.292969 42.824219 L 331.148438 304.703125 L 69.269531 331.554688 Z M 42.417969 69.679688 " clip-rule="nonzero"/></clipPath></defs><g clip-path="url(#id1)"><g clip-path="url(#id2)"><g clip-path="url(#id3)"><path fill="#00c2cb" d="M 42.417969 69.679688 L 304.292969 42.824219 L 331.148438 304.703125 L 69.269531 331.554688 Z M 42.417969 69.679688 " fill-opacity="1" fill-rule="nonzero"/></g></g></g><g fill="#222222" fill-opacity="1"><g transform="translate(77.66235, 229.768369)"><g><path d="M 43.773438 -83.808594 C 44.019531 -83.714844 44.277344 -83.503906 44.511719 -83.53125 C 46.078125 -83.332031 47.746094 -83.265625 49.296875 -83.1875 L 51.484375 -82.699219 C 51.039062 -82.417969 50.804688 -82.394531 50.570312 -82.371094 L 47.347656 -82.515625 C 45.445312 -82.554688 43.527344 -82.714844 41.332031 -82.132812 C 40.414062 -81.804688 39.59375 -81.71875 38.652344 -81.621094 L 35.949219 -81.34375 C 35.363281 -81.285156 34.75 -81.460938 34.058594 -81.269531 C 32.097656 -80.710938 30.136719 -80.15625 28.160156 -79.714844 L 18.90625 -77.339844 C 17.753906 -76.984375 16.695312 -76.878906 15.617188 -75.816406 C 15.40625 -75.558594 15.066406 -75.402344 14.726562 -75.25 L 6.210938 -72.597656 C 5.753906 -72.429688 5.257812 -72.617188 4.671875 -72.558594 C 6.277344 -74.265625 7.816406 -74.304688 9.472656 -75.542969 L 7.945312 -75.386719 C 8.378906 -75.785156 8.835938 -75.953125 9.175781 -76.105469 C 9.515625 -76.261719 9.882812 -76.179688 9.949219 -76.660156 C 7.777344 -75.84375 5.617188 -74.910156 3.457031 -73.976562 C 2.316406 -73.503906 1.191406 -72.914062 0.332031 -73.179688 C -0.3125 -72.519531 -0.382812 -72.039062 -0.4375 -71.4375 C -0.390625 -70.96875 -0.460938 -70.488281 -0.527344 -70.003906 C -1.171875 -68.15625 -1.34375 -66.359375 -1.410156 -64.691406 C -1.554688 -62.65625 -1.375 -60.894531 -0.621094 -59.308594 C -0.324219 -58.746094 0.289062 -58.570312 0.980469 -58.761719 C 13.347656 -63.234375 9.15625 -60.074219 5.445312 -49.957031 L 1.152344 -37.402344 C 0.894531 -36.425781 0.78125 -35.226562 -0.308594 -34.285156 C -0.425781 -34.273438 -0.519531 -34.027344 -0.507812 -33.910156 C -1.136719 -31.945312 -1.769531 -29.980469 -1.929688 -28.0625 C -2.125 -26.5 -2.425781 -24.804688 -2.84375 -23.101562 L -4.621094 -14.960938 C -5.804688 -9.140625 -6.882812 -3.449219 -7.832031 2.347656 C -8.285156 4.886719 -7.554688 6.238281 -5.601562 6.75 C -5.472656 6.855469 -5.355469 6.84375 -5.121094 6.820312 C -4.988281 6.925781 -4.753906 6.898438 -4.636719 6.886719 C -3.722656 6.554688 -2.6875 6.210938 -1.785156 5.765625 C -0.867188 5.433594 0.164062 5.089844 1.070312 4.640625 C 2.890625 3.859375 4.910156 3.890625 6.574219 1.582031 L 6.691406 1.570312 C 7.492188 1.25 7.664062 0.640625 7.722656 0.0390625 C 7.78125 -0.558594 7.601562 -1.136719 7.648438 -1.851562 C 7.898438 -4.015625 8.507812 -6.214844 8.523438 -8.355469 C 8.496094 -9.777344 9.046875 -11.378906 9.359375 -12.953125 C 9.683594 -14.410156 9.996094 -15.988281 10.207031 -17.433594 C 10.449219 -18.527344 10.457031 -19.597656 11.042969 -20.84375 C 11.148438 -20.972656 11.125 -21.207031 11.113281 -21.324219 C 10.816406 -21.890625 11.460938 -22.550781 11.519531 -23.148438 L 11.703125 -24.832031 L 11.679688 -25.066406 C 12.066406 -25.9375 12.910156 -26.972656 12.460938 -27.875 C 12.460938 -27.875 12.566406 -28.007812 12.554688 -28.125 C 13.113281 -29.605469 13.546875 -30.007812 15.039062 -30.515625 L 15.589844 -30.929688 C 14.765625 -30.84375 14.074219 -30.65625 13.394531 -30.347656 C 12.816406 -30.167969 12.675781 -30.390625 12.96875 -31.015625 C 13.671875 -31.089844 14.261719 -31.148438 14.953125 -31.339844 C 15.425781 -31.386719 15.671875 -31.292969 15.964844 -31.917969 C 13.882812 -31.347656 13.765625 -31.335938 13.25 -31.757812 L 14.996094 -33.242188 L 13.902344 -33.488281 L 17.109375 -34.648438 C 18.601562 -35.15625 20.066406 -35.898438 21.277344 -35.667969 C 21.515625 -35.691406 21.867188 -35.726562 22.078125 -35.988281 C 22.605469 -36.636719 23.097656 -36.449219 23.464844 -36.367188 C 24.085938 -36.074219 24.769531 -36.382812 25.566406 -36.703125 L 32.1875 -39.28125 L 31.765625 -39.949219 C 31.871094 -40.078125 31.976562 -40.207031 32.09375 -40.21875 C 34.382812 -41.050781 36.648438 -42.113281 38.949219 -42.824219 C 40.898438 -43.5 42.8125 -44.527344 45.054688 -45.824219 C 44.019531 -45.480469 43.339844 -45.171875 42.660156 -44.867188 L 42.625 -45.21875 C 43.527344 -45.667969 44.523438 -46.363281 45.441406 -46.695312 C 46.460938 -47.15625 47.390625 -47.371094 48.304688 -47.703125 L 48.183594 -48.875 L 51.238281 -50.378906 L 53.058594 -51.15625 C 53.84375 -51.59375 54.5625 -51.550781 55.417969 -52.46875 C 54.570312 -52.617188 53.597656 -51.6875 52.84375 -52.085938 L 55.425781 -53.539062 C 56.199219 -54.09375 56.972656 -54.648438 57.761719 -55.082031 C 57.75 -55.199219 57.621094 -55.304688 57.621094 -55.304688 L 56.503906 -54.597656 L 56.46875 -54.949219 L 57.125 -55.492188 C 58.570312 -56.472656 59.730469 -57.898438 60.902344 -59.207031 C 61.546875 -59.863281 61.707031 -60.59375 62 -61.21875 C 62.679688 -62.710938 63.851562 -64.019531 64.527344 -65.515625 C 65.976562 -68.75 66.605469 -71.902344 65.632812 -74.414062 C 65.160156 -75.554688 64.476562 -76.433594 63.886719 -77.558594 C 63.285156 -78.804688 61.839844 -79.011719 60.90625 -79.984375 C 60.894531 -80.105469 60.777344 -80.089844 60.777344 -80.089844 C 59.875 -79.644531 59.800781 -80.347656 59.308594 -80.535156 C 58.929688 -80.734375 58.660156 -81.0625 58.164062 -81.25 L 52.660156 -82.820312 C 49.964844 -83.613281 46.957031 -84.019531 43.773438 -83.808594 Z M 37.046875 -52.128906 C 37.601562 -51.355469 38.714844 -52.0625 39.75 -52.40625 L 41.59375 -52.949219 C 41.441406 -52.105469 40.867188 -51.925781 40.410156 -51.761719 C 39.046875 -51.144531 37.683594 -50.53125 36.3125 -50.035156 L 34.28125 -48.996094 C 35.058594 -48.363281 35.820312 -49.035156 36.851562 -49.378906 C 36.339844 -48.613281 35.773438 -48.316406 35.316406 -48.152344 L 31.546875 -46.695312 C 31.195312 -46.660156 30.855469 -46.503906 30.644531 -46.246094 C 29.367188 -44.808594 27.957031 -44.664062 26.59375 -44.050781 C 14.613281 -35.816406 16.65625 -46 21.46875 -53.5 C 22.332031 -55.488281 23.070312 -57.582031 23.921875 -59.6875 C 27.265625 -66.441406 26.171875 -66.6875 34.488281 -68.964844 C 36.789062 -69.675781 39.210938 -70.398438 41.617188 -71.238281 C 42.992188 -71.738281 44.273438 -71.988281 45.460938 -71.988281 C 46.515625 -72.097656 47.679688 -72.335938 48.75 -72.328125 C 49.6875 -72.421875 50.640625 -72.402344 51.828125 -72.40625 C 50.515625 -71.320312 49.679688 -71.355469 48.738281 -71.257812 C 50.105469 -70.683594 52.101562 -72.078125 53.675781 -71.761719 L 52.796875 -71.078125 L 54.347656 -71 L 53.808594 -70.472656 L 53.9375 -70.367188 C 55.617188 -70.183594 56.667969 -69.21875 57.398438 -67.871094 C 57.964844 -66.980469 57.371094 -65.847656 56.667969 -64.589844 C 55.238281 -62.304688 53.410156 -60.457031 51.167969 -59.15625 L 43.960938 -55.332031 C 41.589844 -54.136719 39.3125 -53.191406 37.046875 -52.128906 Z M 16.472656 -35.054688 C 16.472656 -35.054688 16.367188 -34.925781 16.378906 -34.808594 L 14.535156 -34.265625 C 14.753906 -35.59375 14.859375 -35.722656 15.554688 -35.914062 C 17.84375 -36.742188 20.144531 -37.453125 22.332031 -38.152344 C 23.703125 -38.648438 23.703125 -38.648438 25.539062 -38.125 C 23.496094 -37.203125 21.96875 -37.046875 20.230469 -36.628906 C 18.609375 -36.226562 16.90625 -35.457031 15.355469 -35.535156 L 15.15625 -35.160156 Z M 33.320312 -42.128906 C 34.742188 -43.34375 36.128906 -43.722656 37.445312 -43.617188 C 36.46875 -42.6875 35.425781 -42.460938 34.484375 -42.367188 C 34.132812 -42.328125 33.78125 -42.292969 33.320312 -42.128906 Z M 31.242188 -41.558594 C 32.015625 -42.113281 32.804688 -42.550781 33.320312 -42.128906 Z M 39.015625 -44.492188 C 38.570312 -44.210938 38.125 -43.925781 37.550781 -43.75 C 37.945312 -44.5 38.546875 -44.445312 39.015625 -44.492188 Z M 26.488281 -39.289062 C 26.03125 -39.125 25.574219 -38.957031 25.21875 -38.921875 L 25.207031 -39.039062 L 26.582031 -39.535156 C 26.59375 -39.417969 26.476562 -39.40625 26.488281 -39.289062 Z M 16.082031 -31.929688 L 16.070312 -32.046875 C 16.082031 -31.929688 15.964844 -31.917969 15.964844 -31.917969 Z M 16.082031 -31.929688 "/></g></g></g><g fill="#222222" fill-opacity="1"><g transform="translate(139.001934, 223.47823)"><g><path d="M 28.378906 -11.578125 C 19.671875 -10.804688 12.28125 -5.296875 14.859375 -18.386719 C 15.273438 -21.277344 16.042969 -24.207031 16.46875 -26.980469 L 19.207031 -46.617188 C 19.667969 -50.226562 21.621094 -63.609375 21.742188 -67.0625 C 21.855469 -68.261719 21.851562 -69.449219 21.507812 -70.484375 C 20.9375 -72.5625 19.644531 -73.617188 17.386719 -73.625 C 16.09375 -73.492188 13.882812 -69.582031 12.589844 -69.449219 C 11.53125 -69.34375 11.320312 -69.082031 10.738281 -67.835938 L 9.328125 -63.058594 C 7.839844 -56.730469 6.023438 -44.316406 4.535156 -37.988281 C 3.804688 -34.707031 1.785156 -24.289062 1.167969 -21.019531 C 0.296875 -16.773438 -0.21875 -12.5625 -0.984375 -8.449219 C -2.140625 -0.0195312 -2.703125 0.277344 -4.964844 2.527344 C -5.894531 2.742188 -6.160156 3.601562 -5.984375 4.175781 C -5.6875 4.738281 -5.839844 5.585938 -5.882812 6.304688 C -5.695312 6.996094 -5.738281 7.714844 -5.679688 8.300781 C -5.476562 9.113281 -5.054688 9.78125 -4.863281 10.472656 C -4.566406 11.035156 -4.390625 11.613281 -3.882812 11.917969 C -3.117188 12.433594 -2.117188 12.921875 -1.363281 13.320312 C -1.234375 13.425781 -1.117188 13.414062 -1 13.402344 C 0.257812 12.917969 1.511719 12.433594 2.640625 11.839844 C 3.871094 11.121094 4.972656 10.296875 6.195312 9.457031 C 7.953125 8.089844 4.925781 9.824219 6.816406 8.5625 C 8.902344 6.925781 11.109375 5.273438 12.902344 3.070312 C 13.101562 2.695312 13.546875 2.410156 13.875 2.140625 C 14.648438 1.585938 15.671875 1.125 16.445312 0.570312 C 18.6875 -0.730469 20.824219 -1.898438 23.054688 -3.3125 C 25.164062 -4.71875 27.207031 -5.640625 29.417969 -6.105469 C 30.238281 -6.1875 31.050781 -6.390625 32.058594 -6.96875 C 33.410156 -7.699219 34.675781 -8.066406 35.980469 -8.082031 C 36.097656 -8.09375 36.441406 -8.25 36.429688 -8.367188 C 37.140625 -9.507812 37.953125 -9.710938 38.773438 -9.792969 C 39.011719 -9.820312 39.117188 -9.949219 39.457031 -10.101562 C 39.195312 -10.3125 39.042969 -10.652344 38.808594 -10.628906 C 37.457031 -11.085938 36.089844 -11.65625 34.410156 -11.839844 C 32.503906 -11.882812 30.496094 -11.796875 28.378906 -11.578125 Z M 28.378906 -11.578125 "/></g></g></g><g fill="#222222" fill-opacity="1"><g transform="translate(177.192294, 219.561955)"><g><path d="M 39.710938 -43.496094 C 39.628906 -44.316406 39.542969 -45.140625 39.578125 -45.976562 C 39.726562 -48.007812 39.636719 -50.019531 40.148438 -51.972656 C 40.71875 -54.523438 41.054688 -57.050781 40.789062 -59.636719 C 40.742188 -60.105469 40.808594 -60.589844 40.773438 -60.941406 C 41.011719 -64.410156 41.144531 -67.746094 41.265625 -71.203125 C 41.46875 -73.835938 41.441406 -76.445312 40.585938 -78.972656 C 40.410156 -79.546875 40.101562 -80.226562 39.6875 -80.777344 C 38.757812 -81.753906 37.722656 -82.597656 36.683594 -83.441406 C 36.167969 -83.859375 35.554688 -84.035156 34.957031 -84.09375 L 29.535156 -84.84375 C 28.207031 -85.0625 27.867188 -84.910156 27.292969 -83.546875 C 25.8125 -79.472656 24.46875 -75.179688 23.847656 -70.84375 C 23.628906 -68.328125 23.414062 -65.808594 23.441406 -63.199219 C 23.542969 -61.074219 23.03125 -59.121094 21.929688 -57.109375 L 14.339844 -41.960938 C 12.152344 -37.820312 10.351562 -33.359375 7.542969 -29.507812 C 7.332031 -29.25 7.25 -28.886719 7.050781 -28.507812 L 3.738281 -23.777344 C 3.527344 -23.515625 2.949219 -23.339844 2.703125 -23.433594 C 1.480469 -23.78125 0.257812 -24.132812 -0.859375 -24.609375 C -1.613281 -25.007812 -2.355469 -25.289062 -3.140625 -24.851562 C -3.292969 -24.003906 -2.996094 -23.441406 -2.351562 -22.914062 L 0.179688 -21.394531 L 1.335938 -20.5625 C 0.0117188 -18.40625 1.699219 -20.480469 0.222656 -18.664062 L -2.613281 -15.050781 C -4.367188 -12.496094 -6.113281 -9.824219 -7.742188 -7.164062 C -5.324219 -4.441406 -7.523438 -0.414062 -1.628906 -1.96875 C 0.925781 -1.402344 -2.722656 -3.402344 -0.046875 -3.914062 C 0.648438 -4.105469 0.976562 -4.375 1.398438 -4.894531 C 3.058594 -8.386719 5.332031 -11.707031 6.964844 -15.4375 C 7.75 -17.0625 8.96875 -19.085938 10.890625 -19.996094 C 12.84375 -20.671875 14.898438 -21.476562 16.714844 -22.257812 C 19.089844 -23.449219 21.484375 -24.410156 23.429688 -26.269531 C 23.757812 -26.542969 24.214844 -26.707031 24.664062 -26.992188 L 25.207031 -25.144531 C 26.089844 -20.011719 26.960938 -14.996094 28.996094 -10.214844 L 29.988281 -7.46875 C 30.023438 -7.117188 30.097656 -6.410156 29.980469 -6.398438 C 29.3125 -5.972656 29.605469 -5.410156 29.65625 -4.941406 C 30.660156 -2.074219 32.007812 0.636719 33.917969 3.054688 C 34.460938 3.710938 35.214844 4.105469 35.980469 4.621094 C 36.484375 4.925781 37.226562 5.207031 38.023438 4.886719 C 37.878906 3.476562 39.101562 3.828125 40.03125 3.613281 C 40.007812 3.378906 39.984375 3.144531 40.089844 3.015625 L 40.394531 2.507812 L 41.558594 3.457031 C 41.566406 2.386719 41.589844 1.433594 41.492188 0.496094 C 41.359375 -0.796875 41.109375 -2.078125 40.976562 -3.371094 C 40.667969 -5.238281 40.367188 -6.988281 39.824219 -8.832031 C 39.230469 -11.148438 38.753906 -13.472656 39.101562 -15.882812 C 39.132812 -16.71875 39.179688 -17.4375 39.09375 -18.257812 C 38.898438 -21.324219 38.574219 -24.5 38.273438 -27.4375 C 38.484375 -27.695312 38.589844 -27.824219 38.707031 -27.835938 C 38.695312 -27.953125 38.8125 -27.964844 38.917969 -28.097656 C 39.691406 -28.648438 39.78125 -30.085938 39.066406 -30.128906 C 38.855469 -29.871094 38.773438 -29.507812 38.351562 -28.988281 C 38.265625 -29.808594 38.207031 -30.398438 38.769531 -30.691406 C 39.671875 -31.140625 39.601562 -31.847656 39.632812 -32.683594 C 39.527344 -33.738281 39.640625 -34.9375 39.53125 -35.996094 C 39.460938 -36.699219 39.765625 -37.207031 40.316406 -37.621094 C 43.296875 -39.824219 46.015625 -42.242188 49.136719 -44.222656 C 49.699219 -44.519531 50.382812 -44.828125 50.542969 -45.554688 C 49.6875 -45.824219 49.050781 -46.234375 48.320312 -46.398438 C 47.828125 -46.582031 47.226562 -46.640625 46.769531 -46.476562 C 45.136719 -46.1875 43.65625 -45.5625 42.214844 -44.582031 L 39.972656 -43.285156 Z M 17.699219 -38.152344 C 21.039062 -46.09375 23.386719 -53.339844 23.746094 -40.550781 C 23.820312 -38.660156 23.910156 -36.648438 24.101562 -34.769531 C 24.070312 -33.933594 23.882812 -33.441406 23.09375 -33.003906 C 14.871094 -26.34375 11.695312 -28.390625 17.699219 -38.152344 Z M 17.699219 -38.152344 "/></g></g></g><g fill="#222222" fill-opacity="1"><g transform="translate(233.596517, 213.777919)"><g><path d="M -1.085938 -38.363281 C -1.164062 -37.996094 -1.011719 -37.65625 -1.105469 -37.410156 C -0.160156 -39.761719 0.292969 -42.304688 1.816406 -44.835938 C 1.78125 -44 1.628906 -43.152344 1.480469 -42.304688 L -1.992188 -29.839844 C -4.308594 -21.167969 -5.710938 -12.832031 -5.253906 -4.921875 C -5.070312 -1.972656 -4.757812 1.082031 -5.136719 4.328125 C -5.289062 5.171875 -4.085938 6.476562 -3.484375 6.53125 C -2.050781 6.621094 -0.417969 6.335938 1.320312 5.921875 C 2.8125 5.410156 4.265625 4.550781 5.699219 3.453125 C 6.460938 2.78125 7.082031 1.886719 8.125 1.660156 C 8.359375 1.636719 8.675781 1.246094 8.875 0.871094 C 10.152344 -0.566406 10.480469 -2.023438 10.675781 -3.589844 C 10.953125 -5.515625 11.335938 -7.574219 12.1875 -9.679688 C 12.933594 -11.65625 13.449219 -13.609375 14.078125 -15.574219 C 14.613281 -17.292969 15.265625 -19.019531 16.414062 -20.5625 C 18.183594 -23 19.472656 -25.507812 20.394531 -28.097656 C 21.152344 -29.957031 22.039062 -31.707031 23.292969 -33.382812 C 24.546875 -35.054688 25.554688 -36.820312 26.207031 -38.546875 C 26.96875 -40.40625 27.984375 -42.054688 29.367188 -43.621094 C 30.238281 -44.421875 30.84375 -45.4375 31.347656 -46.320312 L 39.667969 -61.300781 C 44.273438 -62.726562 38.230469 -48.6875 37.855469 -43.066406 C 37.417969 -40.410156 36.976562 -37.753906 36.40625 -35.199219 L 36.640625 -35.226562 C 37.0625 -36.929688 37.46875 -38.753906 37.769531 -40.445312 C 38.003906 -40.46875 38.121094 -40.484375 38.226562 -40.613281 C 37.585938 -38.765625 38.304688 -37.53125 37.546875 -35.671875 C 36.773438 -33.933594 37.296875 -32.324219 36.042969 -30.652344 C 36.324219 -30.207031 36.820312 -30.019531 36.738281 -29.652344 C 36.707031 -28.820312 36.566406 -27.855469 36.296875 -26.996094 C 35.84375 -25.644531 35.964844 -24.46875 36.390625 -23.800781 C 37.214844 -22.695312 35.929688 -19.003906 35.851562 -17.449219 C 35.796875 -16.851562 35.738281 -16.25 35.785156 -15.78125 C 36.355469 -13.703125 36.9375 -11.507812 37.613281 -9.558594 C 38.84375 -5.644531 43.214844 -5.855469 46.949219 -7.664062 C 48.640625 -8.550781 50.304688 -9.671875 51.972656 -10.792969 C 52.863281 -11.359375 53.613281 -12.148438 54.222656 -13.160156 C 55.019531 -14.667969 55.839844 -15.9375 56.644531 -17.328125 C 57.242188 -18.457031 57.839844 -19.585938 58.316406 -20.703125 C 58.410156 -20.953125 58.480469 -21.433594 58.234375 -21.527344 C 57.703125 -22.066406 57.5 -22.878906 57.394531 -23.933594 C 55.234375 -21.8125 54.195312 -19.214844 51.660156 -17.289062 L 50.789062 -18.863281 C 50.765625 -19.097656 50.621094 -19.320312 50.480469 -19.542969 C 49.808594 -20.308594 50.671875 -23.484375 50.996094 -24.941406 C 51.332031 -26.28125 51.214844 -27.457031 50.738281 -28.597656 C 50.585938 -28.9375 50.65625 -29.417969 50.726562 -29.902344 C 50.851562 -30.980469 51.226562 -31.96875 51.234375 -33.039062 C 51.511719 -34.96875 51.660156 -37.003906 52.160156 -39.070312 C 52.414062 -40.046875 52.085938 -40.964844 52.457031 -41.953125 C 53.136719 -43.445312 53.34375 -44.894531 53.679688 -46.234375 C 54.402344 -49.632812 58.257812 -58.339844 58.992188 -61.621094 C 59.675781 -65.371094 59.902344 -68.957031 59.105469 -72.082031 C 58.570312 -73.808594 57.40625 -74.757812 55.488281 -74.917969 C 53.101562 -75.03125 50.472656 -74.046875 47.921875 -73.429688 C 47.464844 -73.265625 46.785156 -72.957031 46.316406 -72.910156 C 45.363281 -72.929688 44.472656 -72.363281 43.71875 -71.574219 L 42.523438 -70.5 C 38.125 -67.082031 31.859375 -57.535156 29.109375 -53.09375 C 26.875 -49.421875 25.003906 -45.667969 23.003906 -42.019531 C 17.613281 -34.34375 19.261719 -39.140625 20.421875 -48.640625 C 20.675781 -50.804688 20.472656 -52.804688 21.535156 -55.167969 C 21.839844 -55.675781 21.660156 -56.25 21.507812 -56.589844 C 21.035156 -57.730469 20.5625 -58.867188 19.878906 -59.75 C 18.320312 -62.199219 15.296875 -62.722656 12.101562 -62.632812 C 10.210938 -62.554688 8.15625 -61.753906 6.355469 -61.925781 C 5.285156 -61.933594 4.851562 -61.53125 4.503906 -60.308594 C 3.976562 -58.472656 3.453125 -56.640625 3.046875 -54.816406 Z M -1.085938 -38.363281 "/></g></g></g><g fill="#222222" fill-opacity="1"><g transform="translate(154.667022, 247.947361)"><g><path d="M 4.9375 0 L 3.640625 0 L 3.640625 -9.9375 L 0.140625 -9.9375 L 0.140625 -11.09375 L 8.453125 -11.09375 L 8.453125 -9.9375 L 4.9375 -9.9375 Z M 4.9375 0 "/></g></g></g><g fill="#222222" fill-opacity="1"><g transform="translate(170.5496, 247.947361)"><g><path d="M 8.5 0 L 7.109375 -3.53125 L 2.671875 -3.53125 L 1.296875 0 L 0 0 L 4.390625 -11.125 L 5.46875 -11.125 L 9.828125 0 Z M 6.71875 -4.6875 L 5.421875 -8.125 C 5.253906 -8.5625 5.082031 -9.09375 4.90625 -9.71875 C 4.789062 -9.238281 4.628906 -8.707031 4.421875 -8.125 L 3.125 -4.6875 Z M 6.71875 -4.6875 "/></g></g></g><g fill="#222222" fill-opacity="1"><g transform="translate(187.667063, 247.947361)"><g><path d="M 7.78125 -2.953125 C 7.78125 -1.972656 7.425781 -1.207031 6.71875 -0.65625 C 6.007812 -0.113281 5.050781 0.15625 3.84375 0.15625 C 2.519531 0.15625 1.503906 -0.015625 0.796875 -0.359375 L 0.796875 -1.59375 C 1.253906 -1.40625 1.75 -1.253906 2.28125 -1.140625 C 2.820312 -1.035156 3.359375 -0.984375 3.890625 -0.984375 C 4.742188 -0.984375 5.382812 -1.144531 5.8125 -1.46875 C 6.25 -1.789062 6.46875 -2.242188 6.46875 -2.828125 C 6.46875 -3.210938 6.390625 -3.523438 6.234375 -3.765625 C 6.085938 -4.015625 5.832031 -4.242188 5.46875 -4.453125 C 5.101562 -4.660156 4.554688 -4.894531 3.828125 -5.15625 C 2.796875 -5.519531 2.054688 -5.957031 1.609375 -6.46875 C 1.171875 -6.976562 0.953125 -7.640625 0.953125 -8.453125 C 0.953125 -9.304688 1.269531 -9.984375 1.90625 -10.484375 C 2.550781 -10.992188 3.398438 -11.25 4.453125 -11.25 C 5.554688 -11.25 6.570312 -11.046875 7.5 -10.640625 L 7.09375 -9.515625 C 6.175781 -9.898438 5.285156 -10.09375 4.421875 -10.09375 C 3.742188 -10.09375 3.210938 -9.945312 2.828125 -9.65625 C 2.441406 -9.363281 2.25 -8.957031 2.25 -8.4375 C 2.25 -8.050781 2.316406 -7.734375 2.453125 -7.484375 C 2.597656 -7.242188 2.835938 -7.019531 3.171875 -6.8125 C 3.515625 -6.601562 4.03125 -6.378906 4.71875 -6.140625 C 5.882812 -5.722656 6.6875 -5.273438 7.125 -4.796875 C 7.5625 -4.328125 7.78125 -3.710938 7.78125 -2.953125 Z M 7.78125 -2.953125 "/></g></g></g><g fill="#222222" fill-opacity="1"><g transform="translate(203.481455, 247.947361)"><g><path d="M 9.53125 0 L 8.015625 0 L 3.96875 -5.375 L 2.8125 -4.34375 L 2.8125 0 L 1.53125 0 L 1.53125 -11.09375 L 2.8125 -11.09375 L 2.8125 -5.59375 L 7.84375 -11.09375 L 9.359375 -11.09375 L 4.90625 -6.265625 Z M 9.53125 0 "/></g></g></g><g fill="#222222" fill-opacity="1"><g transform="translate(124.502962, 268.947359)"><g><path d="M 6.4375 0 L 2.671875 -9.828125 L 2.609375 -9.828125 C 2.679688 -9.046875 2.71875 -8.117188 2.71875 -7.046875 L 2.71875 0 L 1.53125 0 L 1.53125 -11.09375 L 3.46875 -11.09375 L 6.984375 -1.9375 L 7.03125 -1.9375 L 10.578125 -11.09375 L 12.5 -11.09375 L 12.5 0 L 11.21875 0 L 11.21875 -7.140625 C 11.21875 -7.960938 11.253906 -8.851562 11.328125 -9.8125 L 11.265625 -9.8125 L 7.46875 0 Z M 6.4375 0 "/></g></g></g><g fill="#222222" fill-opacity="1"><g transform="translate(145.809947, 268.947359)"><g><path d="M 8.5 0 L 7.109375 -3.53125 L 2.671875 -3.53125 L 1.296875 0 L 0 0 L 4.390625 -11.125 L 5.46875 -11.125 L 9.828125 0 Z M 6.71875 -4.6875 L 5.421875 -8.125 C 5.253906 -8.5625 5.082031 -9.09375 4.90625 -9.71875 C 4.789062 -9.238281 4.628906 -8.707031 4.421875 -8.125 L 3.125 -4.6875 Z M 6.71875 -4.6875 "/></g></g></g><g fill="#222222" fill-opacity="1"><g transform="translate(162.92741, 268.947359)"><g><path d="M 10.1875 0 L 8.71875 0 L 2.65625 -9.3125 L 2.59375 -9.3125 C 2.675781 -8.21875 2.71875 -7.210938 2.71875 -6.296875 L 2.71875 0 L 1.53125 0 L 1.53125 -11.09375 L 2.984375 -11.09375 L 9.03125 -1.8125 L 9.078125 -1.8125 C 9.066406 -1.957031 9.046875 -2.398438 9.015625 -3.140625 C 8.984375 -3.878906 8.972656 -4.40625 8.984375 -4.71875 L 8.984375 -11.09375 L 10.1875 -11.09375 Z M 10.1875 0 "/></g></g></g><g fill="#222222" fill-opacity="1"><g transform="translate(181.923717, 268.947359)"><g><path d="M 8.5 0 L 7.109375 -3.53125 L 2.671875 -3.53125 L 1.296875 0 L 0 0 L 4.390625 -11.125 L 5.46875 -11.125 L 9.828125 0 Z M 6.71875 -4.6875 L 5.421875 -8.125 C 5.253906 -8.5625 5.082031 -9.09375 4.90625 -9.71875 C 4.789062 -9.238281 4.628906 -8.707031 4.421875 -8.125 L 3.125 -4.6875 Z M 6.71875 -4.6875 "/></g></g></g><g fill="#222222" fill-opacity="1"><g transform="translate(199.041182, 268.947359)"><g><path d="M 6.40625 -5.8125 L 10.171875 -5.8125 L 10.171875 -0.421875 C 9.585938 -0.234375 8.988281 -0.09375 8.375 0 C 7.769531 0.101562 7.066406 0.15625 6.265625 0.15625 C 4.585938 0.15625 3.28125 -0.34375 2.34375 -1.34375 C 1.414062 -2.34375 0.953125 -3.742188 0.953125 -5.546875 C 0.953125 -6.691406 1.179688 -7.695312 1.640625 -8.5625 C 2.097656 -9.4375 2.757812 -10.101562 3.625 -10.5625 C 4.5 -11.019531 5.523438 -11.25 6.703125 -11.25 C 7.878906 -11.25 8.976562 -11.03125 10 -10.59375 L 9.5 -9.453125 C 8.5 -9.878906 7.535156 -10.09375 6.609375 -10.09375 C 5.265625 -10.09375 4.210938 -9.691406 3.453125 -8.890625 C 2.691406 -8.085938 2.3125 -6.972656 2.3125 -5.546875 C 2.3125 -4.046875 2.675781 -2.910156 3.40625 -2.140625 C 4.132812 -1.367188 5.207031 -0.984375 6.625 -0.984375 C 7.394531 -0.984375 8.144531 -1.070312 8.875 -1.25 L 8.875 -4.65625 L 6.40625 -4.65625 Z M 6.40625 -5.8125 "/></g></g></g><g fill="#222222" fill-opacity="1"><g transform="translate(217.635964, 268.947359)"><g><path d="M 7.703125 0 L 1.53125 0 L 1.53125 -11.09375 L 7.703125 -11.09375 L 7.703125 -9.9375 L 2.8125 -9.9375 L 2.8125 -6.375 L 7.40625 -6.375 L 7.40625 -5.234375 L 2.8125 -5.234375 L 2.8125 -1.15625 L 7.703125 -1.15625 Z M 7.703125 0 "/></g></g></g><g fill="#222222" fill-opacity="1"><g transform="translate(233.563993, 268.947359)"><g><path d="M 2.8125 -4.609375 L 2.8125 0 L 1.53125 0 L 1.53125 -11.09375 L 4.5625 -11.09375 C 5.925781 -11.09375 6.929688 -10.832031 7.578125 -10.3125 C 8.222656 -9.789062 8.546875 -9.003906 8.546875 -7.953125 C 8.546875 -6.484375 7.804688 -5.492188 6.328125 -4.984375 L 9.328125 0 L 7.8125 0 L 5.125 -4.609375 Z M 2.8125 -5.71875 L 4.578125 -5.71875 C 5.492188 -5.71875 6.160156 -5.894531 6.578125 -6.25 C 7.003906 -6.613281 7.21875 -7.160156 7.21875 -7.890625 C 7.21875 -8.617188 7 -9.144531 6.5625 -9.46875 C 6.132812 -9.789062 5.441406 -9.953125 4.484375 -9.953125 L 2.8125 -9.953125 Z M 2.8125 -5.71875 "/></g></g></g></svg>